<?xml version="1.0" standalone="no"?>
<!DOCTYPE svg PUBLIC "-//W3C//DTD SVG 20010904//EN"
 "http://www.w3.org/TR/2001/REC-SVG-20010904/DTD/svg10.dtd">
<svg version="1.0" xmlns="http://www.w3.org/2000/svg"
 width="259.000000pt" height="194.000000pt" viewBox="0 0 259.000000 194.000000"
 preserveAspectRatio="xMidYMid meet">
<metadata>
Created by potrace 1.16, written by Peter Selinger 2001-2019
</metadata>
<g transform="translate(0.000000,194.000000) scale(0.100000,-0.100000)"
fill="#000000" stroke="none">
<path d="M0 970 l0 -970 1295 0 1295 0 0 970 0 970 -1295 0 -1295 0 0 -970z
m1292 849 c65 -14 140 -50 193 -94 39 -31 44 -33 146 -36 95 -4 112 -8 175
-38 87 -43 162 -119 205 -207 29 -58 34 -80 37 -160 3 -54 0 -106 -7 -125 -9
-28 -8 -36 7 -53 98 -110 121 -307 52 -451 -42 -88 -118 -166 -202 -205 -35
-17 -70 -30 -79 -30 -9 0 -27 -25 -45 -61 -79 -167 -271 -267 -454 -238 -81
13 -139 38 -206 90 -51 39 -52 39 -150 42 -87 2 -107 6 -167 34 -75 36 -164
114 -201 177 -13 22 -31 65 -40 95 -18 61 -21 186 -6 226 8 22 6 32 -15 59
-13 17 -37 59 -52 91 -25 54 -28 71 -28 170 0 103 2 114 32 177 53 112 145
196 256 234 40 13 49 22 72 70 84 172 289 272 477 233z"/>
<path d="M1098 1695 c-94 -35 -173 -118 -200 -209 -8 -27 -13 -119 -13 -266
l0 -224 73 -43 72 -43 0 244 c0 135 3 251 6 260 3 8 86 62 185 118 98 57 177
107 176 113 -2 5 -26 21 -52 35 -60 30 -187 38 -247 15z"/>
<path d="M1530 1569 c-19 -6 -122 -60 -227 -121 l-193 -111 0 -84 c0 -66 3
-82 13 -76 7 4 106 62 221 127 l207 119 35 -16 c19 -10 104 -58 189 -107 84
-50 156 -90 160 -90 4 0 5 29 3 64 -14 170 -139 294 -307 302 -36 2 -82 -1
-101 -7z"/>
<path d="M707 1370 c-78 -49 -132 -138 -143 -235 -12 -96 42 -221 119 -278 17
-14 112 -70 209 -126 l178 -102 71 41 c64 38 69 43 52 54 -10 7 -103 61 -208
121 -104 59 -196 115 -202 123 -10 12 -13 72 -13 224 0 114 -4 208 -8 208 -4
0 -29 -13 -55 -30z"/>
<path d="M1446 1271 c-69 -39 -69 -39 -45 -54 13 -8 96 -56 184 -107 88 -51
177 -103 198 -116 l37 -24 0 -215 c0 -119 4 -215 9 -215 23 0 109 71 139 114
89 133 75 301 -35 408 -33 31 -392 248 -411 248 -4 0 -38 -18 -76 -39z"/>
<path d="M1198 1129 l-88 -51 0 -106 0 -107 94 -53 93 -52 92 52 91 52 0 107
0 107 -89 51 c-48 28 -92 51 -97 51 -5 0 -48 -23 -96 -51z"/>
<path d="M1560 781 c0 -210 -2 -252 -15 -265 -9 -8 -92 -59 -185 -112 -94 -53
-170 -101 -170 -106 0 -5 26 -21 58 -36 129 -60 262 -35 363 67 85 87 92 111
96 386 4 214 3 231 -14 241 -10 6 -44 25 -75 43 l-58 32 0 -250z"/>
<path d="M1266 650 c-114 -66 -218 -120 -231 -120 -12 0 -100 45 -195 100 -95
54 -178 97 -183 93 -16 -10 2 -125 29 -180 32 -67 110 -136 177 -160 58 -20
165 -22 212 -4 17 7 114 60 218 119 l187 107 0 82 c0 46 -1 83 -2 83 -2 0 -97
-54 -212 -120z"/>
</g>
</svg>
